<?xml version="1.0" standalone="no"?>
<!DOCTYPE svg PUBLIC "-//W3C//DTD SVG 20010904//EN"
 "http://www.w3.org/TR/2001/REC-SVG-20010904/DTD/svg10.dtd">
<svg version="1.0" xmlns="http://www.w3.org/2000/svg"
 width="1024.000000pt" height="1024.000000pt" viewBox="0 0 1024.000000 1024.000000"
 preserveAspectRatio="xMidYMid meet">

<g transform="translate(0.000000,1024.000000) scale(0.100000,-0.100000)"
fill="#000000" stroke="none">
<path d="M5084 6930 c-75 -29 -76 -187 0 -221 30 -14 60 1 86 44 26 43 25 96
-2 137 -26 38 -54 51 -84 40z"/>
<path d="M2498 6280 c-198 -34 -349 -146 -434 -324 -89 -185 -87 -167 -88
-866 l-1 -615 27 -85 c55 -169 147 -284 282 -350 150 -74 99 -70 1086 -70 487
0 1659 1 2605 0 1410 0 1729 3 1770 14 81 21 170 72 237 135 65 60 142 176
133 199 -3 7 -1 11 4 8 12 -8 36 54 49 124 6 30 13 126 17 212 l6 158 -2958 0
c-1627 0 -3006 3 -3065 6 l-107 7 16 23 c13 20 14 61 10 286 -6 254 2 423 24
538 16 80 89 227 142 285 26 28 46 53 47 57 0 13 106 86 176 122 38 19 92 38
119 41 28 4 52 9 55 10 11 6 149 7 605 1 253 -3 723 -5 1045 -4 676 3 870 3
1480 1 245 -1 531 -2 635 -1 537 3 1278 -4 1340 -13 64 -9 103 -22 193 -67 19
-9 56 -41 84 -71 l51 -56 -23 45 c-35 69 -125 151 -210 193 -149 73 84 67
-2750 66 -1405 -1 -2576 -5 -2602 -9z m486 -1755 c54 -52 102 -95 107 -95 4 0
5 41 2 92 l-6 91 24 -8 c13 -4 36 -8 50 -9 l26 -1 2 -168 c2 -185 -5 -215 -42
-195 -12 6 -61 52 -109 102 l-87 91 -1 -99 0 -98 -31 6 c-17 3 -38 6 -45 6
-11 0 -14 32 -14 168 0 161 5 212 19 212 4 0 51 -43 105 -95z m1706 78 c0 -10
18 -46 40 -81 22 -35 62 -111 89 -170 48 -104 49 -107 28 -114 -48 -14 -73 -9
-85 17 -11 23 -16 25 -87 25 -68 0 -76 -2 -91 -25 -13 -21 -23 -24 -61 -23
-41 2 -44 4 -38 26 3 14 26 67 50 119 25 53 42 100 38 106 -3 5 -1 7 4 4 6 -4
29 24 53 63 42 70 60 85 60 53z m1535 -95 c39 -100 47 -101 79 -16 14 40 26
79 26 86 0 8 18 12 55 12 55 0 62 -6 46 -38 -5 -9 -22 -53 -39 -97 -16 -44
-40 -105 -52 -135 -12 -30 -27 -65 -31 -78 -8 -19 -12 -21 -30 -12 -11 6 -23
19 -26 28 -16 46 -57 133 -67 142 -9 7 -25 -16 -60 -85 -27 -52 -52 -95 -56
-95 -24 0 -77 116 -127 278 l-29 92 48 0 c40 0 48 -3 48 -18 0 -21 57 -112 70
-112 11 0 90 131 90 151 1 20 25 -25 55 -103z m527 55 c20 -32 50 -92 67 -133
18 -41 45 -98 60 -127 16 -29 26 -55 23 -58 -3 -3 -25 -5 -50 -5 -35 0 -45 4
-49 20 -4 16 -14 20 -47 20 -22 0 -58 4 -79 9 -35 8 -38 7 -53 -20 -13 -26
-19 -29 -64 -29 -28 0 -50 1 -50 3 0 2 12 32 26 68 34 85 91 186 127 228 16
18 33 44 39 57 6 13 12 24 13 24 1 0 18 -26 37 -57z m-4135 11 c75 -43 111
-135 82 -211 -14 -38 -77 -102 -116 -119 -46 -20 -107 -17 -152 6 -78 39 -135
143 -112 203 6 16 11 39 11 53 0 13 5 24 11 24 6 0 29 13 52 29 84 56 145 61
224 15z m1023 -14 l0 -50 -88 0 c-49 0 -91 -2 -94 -5 -3 -3 -3 -17 0 -31 4
-24 7 -25 66 -23 l61 3 3 -43 3 -43 -68 4 c-68 3 -70 2 -64 -32 0 -6 40 -10
96 -10 l95 0 0 -34 c0 -67 3 -66 -156 -65 l-144 0 0 123 c0 68 3 151 6 184 l7
61 130 0 c71 0 132 3 135 6 10 10 12 4 12 -45z m443 37 l24 11 -5 -72 -4 -73
32 -7 c18 -3 50 -6 71 -6 l39 0 0 53 c0 76 9 100 32 93 11 -2 32 0 46 5 18 7
28 6 36 -2 8 -9 8 -10 -1 -5 -16 9 -16 8 -13 -186 1 -86 0 -160 -3 -165 -3 -5
-26 -7 -52 -5 l-46 4 7 43 c11 76 3 85 -77 85 l-69 0 0 -71 0 -72 -40 6 c-33
4 -40 2 -40 -11 -1 -15 -2 -15 -9 -2 -5 8 -6 99 -3 202 l5 186 23 -10 c17 -8
31 -8 47 -1z m932 3 c4 -6 40 -7 93 -4 78 5 92 3 132 -18 88 -45 101 -118 35
-195 l-35 -41 45 -43 c25 -24 41 -47 36 -52 -4 -4 -32 -7 -62 -5 -54 3 -54 3
-77 51 -21 46 -24 48 -60 45 l-37 -3 2 -48 1 -48 -46 3 -47 3 0 182 c0 169 4
200 20 173z m704 -34 c65 -45 86 -81 86 -147 0 -48 -5 -62 -35 -101 -53 -69
-74 -79 -202 -85 l-111 -6 6 48 c4 26 7 111 7 188 l0 139 104 -4 c95 -3 107
-6 145 -32z m1453 24 l101 0 45 -45 c44 -44 44 -46 40 -97 -5 -43 -11 -57 -37
-79 l-32 -26 36 -47 c19 -25 35 -48 35 -50 0 -2 -21 -6 -47 -8 -46 -3 -46 -3
-75 44 -17 27 -35 48 -41 48 -7 0 -22 3 -34 6 -22 6 -23 4 -23 -50 l0 -57 -47
7 c-27 3 -51 9 -54 13 -4 3 -4 84 -1 179 4 145 7 172 19 168 8 -4 60 -6 115
-6z m636 -44 l3 -46 -100 0 c-100 0 -100 0 -92 -22 7 -20 16 -23 75 -26 l66
-3 0 -40 0 -40 -70 7 -70 7 0 -26 c0 -26 0 -26 93 -29 l92 -3 3 -46 3 -45
-143 3 -143 3 1 35 c0 19 1 99 2 178 l2 142 137 -2 138 -1 3 -46z m-3256 -108
c-8 -8 -9 -4 -5 13 4 13 8 18 11 10 2 -7 -1 -18 -6 -23z"/>
<path d="M4645 4418 c-4 -18 -8 -40 -11 -48 -3 -13 4 -15 36 -12 36 4 40 6 34
26 -8 25 -36 65 -46 66 -3 0 -9 -15 -13 -32z"/>
<path d="M6389 4523 c-13 -16 -12 -17 4 -4 9 7 17 15 17 17 0 8 -8 3 -21 -13z"/>
<path d="M6686 4394 c-8 -22 -6 -24 38 -31 29 -4 36 -2 36 10 0 32 -63 49 -74
21z"/>
<path d="M6616 4355 c-3 -8 -1 -15 4 -15 6 0 10 7 10 15 0 8 -2 15 -4 15 -2 0
-6 -7 -10 -15z"/>
<path d="M2457 4489 c-9 -5 -24 -23 -32 -39 -14 -27 -14 -33 0 -59 22 -43 53
-61 105 -61 50 0 81 22 94 67 8 26 -16 78 -43 93 -25 13 -101 13 -124 -1z"/>
<path d="M5090 4466 l0 -46 48 0 c53 0 72 12 72 46 0 29 -8 34 -70 41 l-50 6
0 -47z"/>
<path d="M5563 4421 l2 -91 43 0 c24 0 57 8 73 17 23 14 29 24 29 53 0 61 -32
92 -107 105 l-41 6 1 -90z"/>
<path d="M7138 4467 c4 -41 7 -45 34 -51 71 -14 88 -5 88 49 0 30 -5 33 -71
41 l-54 6 3 -45z"/>
<path d="M8158 6146 c48 -55 109 -184 137 -289 39 -143 47 -298 42 -877 -3
-464 -5 -532 -21 -584 -44 -148 -138 -311 -224 -386 -112 -99 -257 -167 -402
-190 -55 -8 -746 -10 -2640 -8 l-2565 3 -80 24 c-99 29 -189 69 -252 112 -26
18 -42 25 -34 15 14 -17 175 -116 189 -116 3 0 70 -31 147 -70 77 -38 167 -77
200 -87 66 -18 78 -18 1010 -28 292 -2 782 -8 1090 -12 308 -4 571 -7 585 -6
14 0 273 0 575 0 303 0 564 1 580 1 154 2 727 2 1045 0 410 -3 450 -1 514 26
21 9 47 16 57 16 11 0 19 5 19 10 0 6 7 10 16 10 17 0 79 50 169 137 102 97
168 257 193 463 11 94 9 1153 -3 1235 -19 137 -70 261 -150 370 -24 33 -44 65
-45 70 0 10 -28 44 -112 133 -57 60 -87 81 -40 28z"/>
<path d="M7524 6007 c-4 -18 -7 -232 -8 -477 l-1 -445 -116 0 -116 0 34 -21
c19 -11 45 -39 58 -61 22 -36 32 -43 90 -58 69 -19 149 -15 171 8 32 33 35
111 20 477 -5 131 -5 216 3 260 7 46 7 84 0 135 -13 84 -17 91 -79 160 l-49
54 -7 -32z"/>
<path d="M3111 5925 l2 -107 -209 2 c-115 0 -218 3 -231 6 -18 5 -23 1 -28
-28 -3 -18 -5 -60 -3 -93 2 -47 6 -59 18 -57 8 2 55 6 105 8 97 5 171 17 249
41 32 10 66 13 102 9 95 -11 121 12 130 117 5 54 3 66 -16 90 -12 16 -40 39
-61 53 -22 13 -39 31 -39 39 0 7 -5 17 -11 20 -7 5 -10 -27 -8 -100z"/>
<path d="M3733 6018 c-4 -7 -8 -174 -8 -370 l0 -358 31 0 c52 0 126 13 115 19
-7 5 -12 115 -15 311 -2 168 -7 312 -10 321 -6 15 -61 64 -93 82 -6 4 -15 2
-20 -5z"/>
<path d="M7746 5969 c-14 -17 -23 -35 -20 -41 4 -6 11 -3 17 8 5 11 19 29 30
42 11 12 16 22 10 22 -6 0 -23 -14 -37 -31z"/>
<path d="M7925 5975 c20 -50 17 -72 -14 -108 -18 -20 -46 -39 -62 -42 -26 -6
-36 -2 -65 26 -35 34 -43 31 -21 -7 19 -34 75 -76 112 -84 49 -11 121 -1 144
22 14 12 21 31 21 56 0 32 -9 45 -62 97 -34 33 -58 51 -53 40z"/>
<path d="M5554 5903 c42 -64 60 -137 54 -217 -9 -108 -56 -186 -148 -248 l-25
-16 25 -47 c28 -55 156 -231 188 -259 12 -11 22 -23 22 -28 0 -4 -69 -8 -152
-9 -123 -1 -146 -3 -120 -12 18 -5 56 -34 85 -64 63 -66 127 -89 219 -79 78 8
98 19 98 56 0 24 -11 39 -59 77 -64 53 -137 152 -147 201 -6 27 1 41 54 110
79 104 94 134 100 210 4 58 2 69 -33 139 -27 51 -64 101 -117 157 -74 77 -77
78 -44 29z"/>
<path d="M7784 5925 c-7 -28 3 -56 23 -62 7 -3 10 9 10 29 -2 23 3 33 16 36
25 5 34 -28 12 -44 -15 -11 -16 -14 -3 -14 21 0 68 38 68 56 0 8 -10 14 -22
14 -13 0 -40 3 -60 6 -34 6 -38 4 -44 -21z"/>
<path d="M6769 5895 c140 -160 163 -421 51 -595 -53 -83 -141 -155 -234 -191
-192 -75 -396 -35 -549 108 -46 44 -55 49 -36 23 40 -54 128 -121 231 -174 51
-26 125 -65 163 -87 91 -49 152 -57 259 -34 113 24 237 112 304 215 67 103 85
150 90 231 5 88 -2 116 -64 242 -42 86 -141 211 -224 282 -31 27 -30 25 9 -20z"/>
<path d="M6302 5821 c-66 -23 -135 -87 -168 -156 -47 -98 -25 -216 54 -298 50
-52 130 -95 87 -47 -42 46 0 194 75 271 25 25 59 49 75 53 86 21 137 24 190
11 55 -12 55 -12 49 9 -13 42 -55 96 -92 121 -86 56 -176 69 -270 36z"/>
<path d="M5038 5699 l3 -121 37 6 c20 3 55 6 77 7 22 0 35 3 29 5 -19 8 -3 53
25 73 14 10 51 21 83 25 31 3 66 9 77 14 20 7 20 8 3 41 -29 58 -68 71 -212
71 l-125 0 3 -121z"/>
<path d="M5387 5679 c4 -13 8 -18 11 -10 2 7 -1 18 -6 23 -8 8 -9 4 -5 -13z"/>
<path d="M3010 5560 l0 -111 -182 2 -183 2 4 -79 c2 -43 4 -80 5 -80 6 -6 254
10 251 16 -6 10 43 20 149 29 57 5 91 13 97 22 14 22 11 107 -5 137 -8 15 -26
38 -41 52 -15 14 -35 41 -45 61 -10 19 -26 41 -34 48 -14 12 -16 2 -16 -99z"/>
<path d="M4314 5631 c-32 -14 -64 -60 -64 -91 0 -34 66 -125 110 -153 47 -30
146 -34 188 -8 38 25 55 61 43 94 -14 32 -98 125 -130 142 -36 18 -120 27
-147 16z"/>
<path d="M5045 5390 c-3 -5 -7 -77 -7 -160 l-2 -150 -110 -1 c-107 0 -110 -1
-86 -17 14 -9 46 -38 71 -63 50 -51 84 -62 195 -63 80 -1 84 6 84 146 0 170
19 194 93 116 22 -24 38 -38 35 -33 -21 39 -122 212 -129 221 -11 13 -136 17
-144 4z"/>
<path d="M5950 5324 c0 -6 7 -19 16 -30 14 -18 14 -18 3 6 -14 31 -19 36 -19
24z"/>
<path d="M3075 5310 c-28 -7 -28 -8 -5 -9 14 0 32 4 40 9 17 11 8 11 -35 0z"/>
<path d="M3134 5284 c-4 -20 -4 -74 0 -120 l7 -84 -358 0 c-327 0 -355 -1
-328 -15 17 -9 51 -38 76 -64 43 -47 48 -49 110 -55 35 -3 185 -3 332 2 339 9
316 -8 281 210 -3 19 -23 53 -49 83 -25 27 -45 56 -45 64 0 30 -19 14 -26 -21z"/>
<path d="M4140 5196 l0 -116 -317 0 c-318 0 -318 0 -286 -19 17 -11 45 -40 62
-64 21 -32 41 -48 63 -53 53 -13 548 -5 581 9 l28 12 -7 95 c-8 117 -13 129
-64 177 -22 21 -40 43 -40 50 0 6 -4 15 -10 18 -6 4 -10 -35 -10 -109z"/>
<path d="M5056 3449 c-65 -77 -4 -231 74 -189 53 28 75 113 45 170 -30 57 -80
65 -119 19z"/>
</g>
</svg>
